{
    "asset" : {
        "generator" : "Khronos glTF Blender I/O v1.5.17",
        "version" : "2.0"
    },
    "scene" : 0,
    "scenes" : [
        {
            "name" : "Scene",
            "nodes" : [
                0,
                1
            ]
        }
    ],
    "nodes" : [
        {
            "mesh" : 0,
            "name" : "Plane.001",
            "translation" : [
                -0.3333333432674408,
                -0.6666666269302368,
                2.6198806762695312
            ]
        },
        {
            "mesh" : 1,
            "name" : "Plane.004",
            "translation" : [
                -0.3333333432674408,
                5.333333492279053,
                0
            ]
        }
    ],
    "meshes" : [
        {
            "name" : "Plane.001",
            "primitives" : [
                {
                    "attributes" : {
                        "POSITION" : 0,
                        "NORMAL" : 1
                    },
                    "indices" : 2
                }
            ]
        },
        {
            "name" : "Plane.004",
            "primitives" : [
                {
                    "attributes" : {
                        "POSITION" : 3,
                        "NORMAL" : 4
                    },
                    "indices" : 2
                }
            ]
        }
    ],
    "accessors" : [
        {
            "bufferView" : 0,
            "componentType" : 5126,
            "count" : 3,
            "max" : [
                1.3333333730697632,
                0.6666666269302368,
                0
            ],
            "min" : [
                -0.6666666269302368,
                -1.3333332538604736,
                0
            ],
            "type" : "VEC3"
        },
        {
            "bufferView" : 1,
            "componentType" : 5126,
            "count" : 3,
            "type" : "VEC3"
        },
        {
            "bufferView" : 2,
            "componentType" : 5123,
            "count" : 3,
            "type" : "SCALAR"
        },
        {
            "bufferView" : 3,
            "componentType" : 5126,
            "count" : 3,
            "max" : [
                1.3333333730697632,
                0.6666665077209473,
                0
            ],
            "min" : [
                -0.6666666269302368,
                -1.3333334922790527,
                0
            ],
            "type" : "VEC3"
        },
        {
            "bufferView" : 4,
            "componentType" : 5126,
            "count" : 3,
            "type" : "VEC3"
        }
    ],
    "bufferViews" : [
        {
            "buffer" : 0,
            "byteLength" : 36,
            "byteOffset" : 0
        },
        {
            "buffer" : 0,
            "byteLength" : 36,
            "byteOffset" : 36
        },
        {
            "buffer" : 0,
            "byteLength" : 6,
            "byteOffset" : 72
        },
        {
            "buffer" : 0,
            "byteLength" : 36,
            "byteOffset" : 80
        },
        {
            "buffer" : 0,
            "byteLength" : 36,
            "byteOffset" : 116
        }
    ],
    "buffers" : [
        {
            "byteLength" : 152,
            "uri" : "data:application/octet-stream;base64,"
        }
    ]
}
