{
    "asset" : {
        "generator" : "Khronos glTF Blender I/O v1.4.40",
        "version" : "2.0"
    },
    "scene" : 0,
    "scenes" : [
        {
            "name" : "Scene",
            "nodes" : [
                0,
                1
            ]
        }
    ],
    "nodes" : [
        {
            "mesh" : 0,
            "name" : "inner1280"
        },
        {
            "mesh" : 1,
            "name" : "outer1280"
        }
    ],
    "materials" : [
        {
            "doubleSided" : true,
            "name" : "BB",
            "pbrMetallicRoughness" : {
                "baseColorFactor" : [
                    1,
                    0,
                    0,
                    1
                ],
                "metallicFactor" : 0,
                "roughnessFactor" : 0.5
            }
        }
    ],
    "meshes" : [
        {
            "name" : "inner_highres",
            "primitives" : [
                {
                    "attributes" : {
                        "POSITION" : 0,
                        "NORMAL" : 1
                    },
                    "indices" : 2,
                    "material" : 0
                }
            ]
        },
        {
            "name" : "outer_highres",
            "primitives" : [
                {
                    "attributes" : {
                        "POSITION" : 3,
                        "NORMAL" : 4
                    },
                    "indices" : 5,
                    "material" : 0
                }
            ]
        }
    ],
    "accessors" : [
        {
            "bufferView" : 0,
            "componentType" : 5126,
            "count" : 3840,
            "max" : [
                0.4999992549419403,
                0.4999999701976776,
                0.5
            ],
            "min" : [
                -0.4999992549419403,
                -0.4999999701976776,
                -0.5
            ],
            "type" : "VEC3"
        },
        {
            "bufferView" : 1,
            "componentType" : 5126,
            "count" : 3840,
            "type" : "VEC3"
        },
        {
            "bufferView" : 2,
            "componentType" : 5123,
            "count" : 3840,
            "type" : "SCALAR"
        },
        {
            "bufferView" : 3,
            "componentType" : 5126,
            "count" : 3840,
            "max" : [
                1.000000238418579,
                0.9999999403953552,
                0.9999999403953552
            ],
            "min" : [
                -1.0000003576278687,
                -0.9999999403953552,
                -1
            ],
            "type" : "VEC3"
        },
        {
            "bufferView" : 4,
            "componentType" : 5126,
            "count" : 3840,
            "type" : "VEC3"
        },
        {
            "bufferView" : 5,
            "componentType" : 5123,
            "count" : 3840,
            "type" : "SCALAR"
        }
    ],
    "bufferViews" : [
        {
            "buffer" : 0,
            "byteLength" : 46080,
            "byteOffset" : 0
        },
        {
            "buffer" : 0,
            "byteLength" : 46080,
            "byteOffset" : 46080
        },
        {
            "buffer" : 0,
            "byteLength" : 7680,
            "byteOffset" : 92160
        },
        {
            "buffer" : 0,
            "byteLength" : 46080,
            "byteOffset" : 99840
        },
        {
            "buffer" : 0,
            "byteLength" : 46080,
            "byteOffset" : 145920
        },
        {
            "buffer" : 0,
            "byteLength" : 7680,
            "byteOffset" : 192000
        }
    ],
    "buffers" : [
        {
            "byteLength" : 199680,
            "uri" : "data:application/octet-stream;base64,"
        }
    ]
}
